<svg width="32" height="32" viewBox="0 0 32 32" fill="none" xmlns="http://www.w3.org/2000/svg">
<rect width="32" height="32" rx="8" fill="#D9D9D9"/>
<path d="M23.2806 22.2194C23.3503 22.289 23.4056 22.3718 23.4433 22.4628C23.481 22.5539 23.5004 22.6514 23.5004 22.75C23.5004 22.8485 23.481 22.9461 23.4433 23.0372C23.4056 23.1282 23.3503 23.2109 23.2806 23.2806C23.2109 23.3503 23.1282 23.4056 23.0372 23.4433C22.9461 23.481 22.8485 23.5004 22.75 23.5004C22.6514 23.5004 22.5539 23.481 22.4628 23.4433C22.3718 23.4056 22.289 23.3503 22.2194 23.2806L16 17.0603L9.78061 23.2806C9.63988 23.4213 9.44901 23.5004 9.24999 23.5004C9.05097 23.5004 8.8601 23.4213 8.71936 23.2806C8.57863 23.1399 8.49957 22.949 8.49957 22.75C8.49957 22.551 8.57863 22.3601 8.71936 22.2194L14.9397 16L8.71936 9.78061C8.57863 9.63988 8.49957 9.44901 8.49957 9.24999C8.49957 9.05097 8.57863 8.8601 8.71936 8.71936C8.8601 8.57863 9.05097 8.49957 9.24999 8.49957C9.44901 8.49957 9.63988 8.57863 9.78061 8.71936L16 14.9397L22.2194 8.71936C22.3601 8.57863 22.551 8.49957 22.75 8.49957C22.949 8.49957 23.1399 8.57863 23.2806 8.71936C23.4213 8.8601 23.5004 9.05097 23.5004 9.24999C23.5004 9.44901 23.4213 9.63988 23.2806 9.78061L17.0603 16L23.2806 22.2194Z" fill="white"/>
</svg>
