<svg width="110" height="85" viewBox="0 0 110 85" fill="none" xmlns="http://www.w3.org/2000/svg">
<rect width="110" height="85" rx="16" fill="#F14635"/>
<path fill-rule="evenodd" clip-rule="evenodd" d="M32.281 44.9807V54.6428H27.5V30.3571H35.8667C38.5793 30.3571 40.3695 31.099 41.9001 32.3552C43.4307 33.6114 44.196 35.3628 44.196 37.6096C44.196 38.8492 43.8719 39.9199 43.2237 40.822C42.5755 41.724 41.6305 42.4517 40.3885 43.0051C41.7939 43.4256 42.8043 44.1284 43.4198 45.1135C44.0353 46.0985 44.3431 47.3159 44.3431 48.7658V50.5422C44.3431 51.2173 44.433 51.9229 44.6127 52.6589C44.7925 53.3949 45.1002 53.94 45.536 54.2941V54.6428H40.6173C40.1815 54.2886 39.901 53.702 39.7757 52.883C39.6504 52.064 39.5878 51.2727 39.5878 50.509V48.799C39.5878 47.5926 39.2637 46.6547 38.6155 45.9851C37.9673 45.3155 37.0495 44.9807 35.862 44.9807H32.281ZM32.281 40.072H34.9394C36.059 40.072 36.8918 39.8734 37.438 39.4763C37.9841 39.0792 38.2572 38.4911 38.2572 37.7121C38.2572 36.9484 37.9819 36.3413 37.4312 35.8907C36.8805 35.4401 36.0726 35.2148 35.0076 35.2148H32.281V40.072ZM53.7952 44.9284V49.7855H63.3572V54.6427H49.0143V30.3569H63.3572V35.2141H53.7952V40.0712H63.3572V44.9284H53.7952ZM68.1382 54.6427V30.3569H75.3097C78.2184 30.3569 80.8439 31.4143 82.7285 33.3013C84.6132 35.1884 85.5556 37.6094 85.5556 40.5645V44.5655C85.5556 47.5317 84.6132 49.9527 82.7285 51.8287C80.8439 53.7047 78.2184 54.6427 75.3097 54.6427H68.1382ZM72.9192 35.2148V49.7863H75.3097C76.5891 49.7863 78.1079 49.2678 78.8898 48.2307C79.6717 47.1937 80.0906 45.3355 80.0906 43.7148V41.2863C80.0906 39.6753 79.6717 37.7954 78.8898 36.7631C78.1079 35.7309 76.5891 35.2148 75.3097 35.2148H72.9192Z" fill="white"/>
</svg>
