<svg width="32" height="32" viewBox="0 0 32 32" fill="none" xmlns="http://www.w3.org/2000/svg">
<g id="Group">
<path id="Vector" d="M22.6667 5.33331C23.3395 5.3331 23.9874 5.58719 24.4808 6.04464C24.9741 6.5021 25.2762 7.12911 25.3267 7.79998L25.3334 7.99998V10.6666H26.6667C27.3395 10.6664 27.9874 10.9205 28.4808 11.378C28.9741 11.8354 29.2762 12.4624 29.3267 13.1333L29.3334 13.3333V25.3333C29.3336 26.0061 29.0795 26.6541 28.622 27.1474C28.1646 27.6407 27.5376 27.9429 26.8667 27.9933L26.6667 28H21.3334C20.9011 28.0001 20.4753 27.8951 20.0927 27.6939C19.7101 27.4927 19.3823 27.2015 19.1374 26.8453L19.024 26.6666H5.33335C4.66059 26.6669 4.0126 26.4128 3.51929 25.9553C3.02598 25.4979 2.72381 24.8709 2.67335 24.2L2.66669 24V7.99998C2.66647 7.32721 2.92056 6.67922 3.37802 6.18592C3.83547 5.69261 4.46248 5.39044 5.13335 5.33998L5.33335 5.33331H22.6667ZM26.6667 13.3333H21.3334V25.3333H26.6667V13.3333ZM22.6667 7.99998H5.33335V24H18.6667V13.3333C18.6667 12.6261 18.9476 11.9478 19.4477 11.4477C19.9478 10.9476 20.6261 10.6666 21.3334 10.6666H22.6667V7.99998Z" fill="#F94230"/>
</g>
</svg>
