<svg width="110" height="85" viewBox="0 0 110 85" fill="none" xmlns="http://www.w3.org/2000/svg">
<rect width="110" height="85" rx="42.5" fill="#A3DB5A"/>
<rect width="110" height="85" rx="16" fill="#F14635"/>
<path fill-rule="evenodd" clip-rule="evenodd" d="M14.7131 47.2253V52.5H10V32.5H14.7131V41.3187L16.3513 38.7775L20.5676 32.5H26.3953L19.7888 41.3462L26.3953 52.5H20.8093L16.6467 45.0549L14.7131 47.2253ZM32.303 45.4396V52.5H27.5898V32.5H35.2839C37.6025 32.5 39.4152 33.0266 40.7222 34.0797C42.0291 35.1328 42.6826 36.6209 42.6826 38.544C42.6826 39.9359 42.4073 41.0897 41.8568 42.0055C41.3063 42.9212 40.4447 43.663 39.272 44.2308L43.354 52.294V52.5H38.3052L34.8542 45.4396H32.303ZM35.2856 41.7172H32.3047V36.2227H35.2856C36.1719 36.2227 36.8433 36.4676 37.2998 36.9575C37.7563 37.4475 37.9846 38.1228 37.9846 38.9836C37.9846 39.8445 37.7586 40.5152 37.3065 40.996C36.8545 41.4768 36.1808 41.7172 35.2856 41.7172ZM58.9954 48.7912V52.5H45.5273V32.5H59.0222V36.2225H50.2405V40.4396H57.6526V44.0247H50.2405V48.7912H58.9954ZM67.3499 52.5C69.0418 52.4908 70.5748 52.0765 71.9489 51.2569C73.323 50.4373 74.3882 49.3017 75.1447 47.8503C75.9011 46.3988 76.2793 44.7573 76.2793 42.9258V42.0055C76.2704 40.1923 75.8787 38.5554 75.1044 37.0948C74.33 35.6342 73.2536 34.5032 71.875 33.7019C70.4964 32.9006 68.9433 32.5 67.2156 32.5H60.918V52.5H67.3499ZM65.6299 48.7913H67.2681C68.6198 48.7913 69.6582 48.2991 70.3833 47.3147C71.1084 46.3303 71.4709 44.8673 71.4709 42.926V42.0606C71.4709 40.1283 71.1084 38.6723 70.3833 37.6924C69.6582 36.7126 68.6019 36.2227 67.2144 36.2227H65.6299V48.7913ZM83.7183 52.5V32.5H79.0186V52.5H83.7183ZM96.084 36.2225V52.5H91.3709V36.2225H85.6104V32.5H101.952V36.2225H96.084Z" fill="white"/>
</svg>
