<svg width="24" height="24" viewBox="0 0 24 24" fill="none" xmlns="http://www.w3.org/2000/svg">
<path fill-rule="evenodd" clip-rule="evenodd" d="M15.707 11.293C15.8944 11.4805 15.9998 11.7348 15.9998 12C15.9998 12.2652 15.8944 12.5195 15.707 12.707L10.05 18.364C9.95773 18.4595 9.84739 18.5357 9.72538 18.5881C9.60338 18.6405 9.47216 18.6681 9.33938 18.6692C9.2066 18.6704 9.07492 18.6451 8.95202 18.5948C8.82913 18.5445 8.71747 18.4703 8.62358 18.3764C8.52969 18.2825 8.45544 18.1708 8.40515 18.048C8.35487 17.9251 8.32957 17.7934 8.33073 17.6606C8.33188 17.5278 8.35947 17.3966 8.41188 17.2746C8.46428 17.1526 8.54047 17.0422 8.63598 16.95L13.586 12L8.63598 7.05C8.45382 6.8614 8.35302 6.60879 8.3553 6.3466C8.35758 6.0844 8.46275 5.83359 8.64816 5.64818C8.83357 5.46277 9.08438 5.3576 9.34658 5.35532C9.60877 5.35305 9.86137 5.45384 10.05 5.636L15.707 11.293Z" fill="#2F81BB"/>
</svg>
