<svg width="65" height="35" viewBox="0 0 65 35" fill="none" xmlns="http://www.w3.org/2000/svg">
<path d="M47.5 0H17.5C7.83502 0 0 7.83502 0 17.5C0 27.165 7.83502 35 17.5 35H47.5C57.165 35 65 27.165 65 17.5C65 7.83502 57.165 0 47.5 0Z" fill="#F14635"/>
<path d="M16.1856 18.6593C16.1856 20.3672 15.8033 21.6843 15.0387 22.6106C14.2741 23.5369 13.1965 24 11.8058 24C10.4036 24 9.3187 23.534 8.55122 22.6019C7.78373 21.6698 7.39999 20.3556 7.39999 18.6593V16.3494C7.39999 14.6415 7.78229 13.3244 8.54689 12.3981C9.31149 11.4718 10.392 11.0087 11.7885 11.0087C13.185 11.0087 14.2669 11.4747 15.0344 12.4068C15.8019 13.3389 16.1856 14.656 16.1856 16.358V18.6593ZM13.2686 15.976C13.2686 15.067 13.1503 14.3882 12.9137 13.9395C12.6771 13.4909 12.3021 13.2665 11.7885 13.2665C11.2864 13.2665 10.9215 13.4749 10.6935 13.8918C10.4656 14.3086 10.343 14.9397 10.3257 15.7849V19.0154C10.3257 19.959 10.444 20.6494 10.6805 21.0865C10.9171 21.5236 11.2922 21.7422 11.8058 21.7422C12.3021 21.7422 12.6685 21.5294 12.9051 21.1039C13.1417 20.6784 13.2629 20.0111 13.2686 19.1022V15.976ZM19.6245 15.8102C20.06 15.8102 20.4189 15.9522 20.7011 16.2362C20.9834 16.5202 21.1245 16.8782 21.1245 17.3102C21.1245 17.7421 20.9834 18.1001 20.7011 18.3841C20.4189 18.6681 20.06 18.8102 19.6245 18.8102C19.1944 18.8102 18.8369 18.6696 18.552 18.3886C18.267 18.1075 18.1245 17.748 18.1245 17.3102C18.1245 16.8723 18.267 16.5128 18.552 16.2318C18.8369 15.9507 19.1944 15.8102 19.6245 15.8102ZM32.1383 18.6593C32.1383 20.3672 31.756 21.6843 30.9914 22.6106C30.2268 23.5369 29.1492 24 27.7584 24C26.3562 24 25.2713 23.534 24.5039 22.6019C23.7364 21.6698 23.3526 20.3556 23.3526 18.6593V16.3494C23.3526 14.6415 23.7349 13.3244 24.4995 12.3981C25.2641 11.4718 26.3447 11.0087 27.7411 11.0087C29.1376 11.0087 30.2196 11.4747 30.9871 12.4068C31.7545 13.3389 32.1383 14.656 32.1383 16.358V18.6593ZM29.2213 15.976C29.2213 15.067 29.103 14.3882 28.8664 13.9395C28.6298 13.4909 28.2547 13.2665 27.7411 13.2665C27.2391 13.2665 26.8741 13.4749 26.6462 13.8918C26.4182 14.3086 26.2956 14.9397 26.2783 15.7849V19.0154C26.2783 19.959 26.3966 20.6494 26.6332 21.0865C26.8698 21.5236 27.2449 21.7422 27.7584 21.7422C28.2547 21.7422 28.6211 21.5294 28.8577 21.1039C29.0943 20.6784 29.2155 20.0111 29.2213 19.1022V15.976ZM35.5772 15.8102C36.0127 15.8102 36.3715 15.9522 36.6538 16.2362C36.9361 16.5202 37.0772 16.8782 37.0772 17.3102C37.0772 17.7421 36.9361 18.1001 36.6538 18.3841C36.3715 18.6681 36.0127 18.8102 35.5772 18.8102C35.1471 18.8102 34.7896 18.6696 34.5046 18.3886C34.2197 18.1075 34.0772 17.748 34.0772 17.3102C34.0772 16.8723 34.2197 16.5128 34.5046 16.2318C34.7896 15.9507 35.1471 15.8102 35.5772 15.8102ZM45.8058 23.8263H42.8801V14.4823L40.0064 15.3246V13.1015L45.5375 11.1824H45.8058V23.8263ZM57.2 23.8263H48.4057V21.9158L52.4566 17.6433C53.4549 16.5028 53.9541 15.5968 53.9541 14.9252C53.9541 14.381 53.8358 13.967 53.5992 13.6834C53.3626 13.3997 53.0192 13.2578 52.5691 13.2578C52.1248 13.2578 51.7642 13.4474 51.4872 13.8267C51.2102 14.2059 51.0717 14.6791 51.0717 15.2465H48.146C48.146 14.4707 48.3393 13.7543 48.726 13.0972C49.1126 12.4401 49.6492 11.9263 50.3359 11.5558C51.0226 11.1853 51.7901 11 52.6384 11C54.0002 11 55.049 11.3155 55.7848 11.9466C56.5205 12.5776 56.8884 13.4836 56.8884 14.6647C56.8884 15.1625 56.7961 15.6474 56.6114 16.1192C56.4267 16.5911 56.1397 17.0861 55.7501 17.6042C55.3606 18.1224 54.7331 18.8156 53.8675 19.684L52.2402 21.5685H57.2V23.8263Z" fill="white"/>
</svg>
