<svg width="65" height="35" viewBox="0 0 65 35" fill="none" xmlns="http://www.w3.org/2000/svg">
<path d="M47.5 0H17.5C7.83502 0 0 7.83502 0 17.5C0 27.165 7.83502 35 17.5 35H47.5C57.165 35 65 27.165 65 17.5C65 7.83502 57.165 0 47.5 0Z" fill="#58A000"/>
<path fill-rule="evenodd" clip-rule="evenodd" d="M27.6925 10.9525C27.1745 10.9525 26.7532 11.3759 26.7532 11.8954V12.4614C26.7532 12.9809 27.1745 13.4042 27.6925 13.4042H27.9544C28.4723 13.4042 28.8937 12.9809 28.8937 12.4614V11.8954C28.8937 11.3759 28.4723 10.9525 27.9544 10.9525H27.6925ZM27.9544 14.8567H27.6925C26.3763 14.8567 25.3056 13.7821 25.3056 12.4614V11.8954C25.3056 10.5746 26.3763 9.5 27.6925 9.5H27.9544C29.2702 9.5 30.3412 10.5746 30.3412 11.8954V12.4614C30.3412 13.7821 29.2702 14.8567 27.9544 14.8567ZM13.4767 17.8011L14.3137 9.99419H22.6006V12.2276H16.4542L16.0307 15.9293C16.744 15.5179 17.5495 15.3125 18.4465 15.3125C19.9157 15.3125 21.0587 15.784 21.8747 16.7269C22.6906 17.6701 23.0986 18.9393 23.0986 20.5345C23.0986 22.1087 22.6465 23.3623 21.7423 24.2946C20.8377 25.2269 19.5978 25.693 18.0226 25.693C16.6098 25.693 15.4386 25.2908 14.5097 24.4859C13.5809 23.6814 13.0774 22.6191 13 21.3005H15.4899C15.589 22.052 15.8574 22.6282 16.2954 23.0286C16.7335 23.4294 17.3057 23.6298 18.0121 23.6298C18.8031 23.6298 19.4198 23.3463 19.8611 22.7789C20.3027 22.2114 20.5233 21.4389 20.5233 20.4601C20.5233 19.5173 20.2799 18.7708 19.7924 18.2212C19.3048 17.6719 18.6335 17.3971 17.7791 17.3971C17.3125 17.3971 16.9168 17.4591 16.592 17.5829C16.2672 17.7071 15.9139 17.95 15.5326 18.3116L13.4767 17.8011ZM28.871 20.3924L27.4466 19.5094L33.1029 10.3149L34.5273 11.1975L28.871 20.3924ZM33.0801 18.2461C33.0801 17.7262 33.5014 17.3032 34.0194 17.3032H34.2816C34.7992 17.3032 35.221 17.7262 35.221 18.2461V18.8117C35.221 19.3316 34.7992 19.7545 34.2816 19.7545H34.0194C33.5014 19.7545 33.0801 19.3316 33.0801 18.8117V18.2461ZM34.0194 21.2074H34.2816C35.5975 21.2074 36.6681 20.1325 36.6681 18.8117V18.2461C36.6681 16.9253 35.5975 15.8507 34.2816 15.8507H34.0194C32.7035 15.8507 31.6329 16.9253 31.6329 18.2461V18.8117C31.6329 20.1325 32.7035 21.2074 34.0194 21.2074ZM44.0687 12.2808H51.8V10.1083H44.0687V12.2808ZM46.1302 23.4862H48.6491C49.3928 23.4862 50.0012 23.2782 50.4091 22.8842C50.7502 22.5547 50.9383 22.1112 50.9383 21.6355C50.9383 20.8001 50.3386 19.825 48.6491 19.825H46.1302V23.4862ZM48.6491 25.4929H44.0686V13.5708H51.7999V15.5778H46.1302V17.8179H48.6491C51.5055 17.8179 53 19.7383 53 21.6355C53 23.5524 51.5055 25.4929 48.6491 25.4929Z" fill="white"/>
</svg>
