<svg width="110" height="85" viewBox="0 0 110 85" fill="none" xmlns="http://www.w3.org/2000/svg">
<rect width="110" height="85" rx="16" fill="#FFD300"/>
<path fill-rule="evenodd" clip-rule="evenodd" d="M36 23.5C36 22.1193 37.1193 21 38.5 21H70.1667C71.5474 21 72.6667 22.1193 72.6667 23.5V24.2895C72.6667 25.6702 71.5474 26.7895 70.1667 26.7895H38.5C37.1193 26.7895 36 25.6702 36 24.2895V23.5ZM36 32.7632C36 31.3825 37.1193 30.2632 38.5 30.2632H70.1667C71.5474 30.2632 72.6667 31.3825 72.6667 32.7632V33.5527C72.6667 34.9334 71.5474 36.0527 70.1667 36.0527H58.2253V62.4998C58.2253 63.8805 57.106 64.9998 55.7253 64.9998H54.0586C52.6779 64.9998 51.5586 63.8805 51.5586 62.4998V36.0527H38.5C37.1193 36.0527 36 34.9334 36 33.5527V32.7632Z" fill="white"/>
</svg>
