<svg width="32" height="32" viewBox="0 0 32 32" fill="none" xmlns="http://www.w3.org/2000/svg">
<g id="fluent:luggage-16-regular">
<path id="Vector" d="M10.668 3C10.668 2.73478 10.7734 2.48043 10.9609 2.29289C11.1484 2.10536 11.4028 2 11.668 2H20.334C20.5992 2 20.8536 2.10536 21.0411 2.29289C21.2286 2.48043 21.334 2.73478 21.334 3C21.334 3.26522 21.2286 3.51957 21.0411 3.70711C20.8536 3.89464 20.5992 4 20.334 4H20V6H22C23.0609 6 24.0783 6.42143 24.8284 7.17157C25.5786 7.92172 26 8.93913 26 10V24C26 25.0609 25.5786 26.0783 24.8284 26.8284C24.0783 27.5786 23.0609 28 22 28V29C22 29.2652 21.8946 29.5196 21.7071 29.7071C21.5196 29.8946 21.2652 30 21 30C20.7348 30 20.4804 29.8946 20.2929 29.7071C20.1054 29.5196 20 29.2652 20 29V28H12V29C12 29.2652 11.8946 29.5196 11.7071 29.7071C11.5196 29.8946 11.2652 30 11 30C10.7348 30 10.4804 29.8946 10.2929 29.7071C10.1054 29.5196 10 29.2652 10 29V28C8.93913 28 7.92172 27.5786 7.17157 26.8284C6.42143 26.0783 6 25.0609 6 24V10C6 8.93913 6.42143 7.92172 7.17157 7.17157C7.92172 6.42143 8.93913 6 10 6H12V4H11.668C11.4028 4 11.1484 3.89464 10.9609 3.70711C10.7734 3.51957 10.668 3.26522 10.668 3ZM14 4V6H18V4H14ZM10 8C9.46957 8 8.96086 8.21071 8.58579 8.58579C8.21071 8.96086 8 9.46957 8 10V24C8 24.5304 8.21071 25.0391 8.58579 25.4142C8.96086 25.7893 9.46957 26 10 26H22C22.5304 26 23.0391 25.7893 23.4142 25.4142C23.7893 25.0391 24 24.5304 24 24V10C24 9.46957 23.7893 8.96086 23.4142 8.58579C23.0391 8.21071 22.5304 8 22 8H10ZM10 13C10 12.7348 10.1054 12.4804 10.2929 12.2929C10.4804 12.1054 10.7348 12 11 12H21C21.2652 12 21.5196 12.1054 21.7071 12.2929C21.8946 12.4804 22 12.7348 22 13C22 13.2652 21.8946 13.5196 21.7071 13.7071C21.5196 13.8946 21.2652 14 21 14H11C10.7348 14 10.4804 13.8946 10.2929 13.7071C10.1054 13.5196 10 13.2652 10 13Z" fill="#F94230"/>
</g>
</svg>
