<svg width="24" height="24" viewBox="0 0 24 24" fill="none" xmlns="http://www.w3.org/2000/svg">
<g id="Icon">
<path id="Line 1" d="M5 11.2C4.55817 11.2 4.2 11.5582 4.2 12C4.2 12.4418 4.55817 12.8 5 12.8V11.2ZM19.5657 12.5657C19.8781 12.2533 19.8781 11.7467 19.5657 11.4343L14.4745 6.34315C14.1621 6.03073 13.6556 6.03073 13.3431 6.34315C13.0307 6.65557 13.0307 7.1621 13.3431 7.47452L17.8686 12L13.3431 16.5255C13.0307 16.8379 13.0307 17.3444 13.3431 17.6569C13.6556 17.9693 14.1621 17.9693 14.4745 17.6569L19.5657 12.5657ZM5 12.8H19V11.2H5V12.8Z" fill="#EE4A3D"/>
</g>
</svg>
