<svg width="32" height="32" viewBox="0 0 32 32" fill="none" xmlns="http://www.w3.org/2000/svg">
<g id="fluent:building-government-16-regular">
<path id="Vector" d="M15 2C14.7348 2 14.4804 2.10536 14.2929 2.29289C14.1054 2.48043 14 2.73478 14 3V8C14 8.084 14.01 8.166 14.03 8.244C12.3059 8.68277 10.777 9.68347 9.68506 11.088C8.59308 12.4926 8.00017 14.2209 8 16V18H5C4.20435 18 3.44129 18.3161 2.87868 18.8787C2.31607 19.4413 2 20.2044 2 21V29C2 29.2652 2.10536 29.5196 2.29289 29.7071C2.48043 29.8946 2.73478 30 3 30H29C29.2652 30 29.5196 29.8946 29.7071 29.7071C29.8946 29.5196 30 29.2652 30 29V21C30 20.2044 29.6839 19.4413 29.1213 18.8787C28.5587 18.3161 27.7956 18 27 18H24V16C24 13.8783 23.1571 11.8434 21.6569 10.3431C20.1566 8.84285 18.1217 8 16 8V6H19C19.2652 6 19.5196 5.89464 19.7071 5.70711C19.8946 5.51957 20 5.26522 20 5V3C20 2.73478 19.8946 2.48043 19.7071 2.29289C19.5196 2.10536 19.2652 2 19 2H15ZM19 28V23.5C19 23.1022 18.842 22.7206 18.5607 22.4393C18.2794 22.158 17.8978 22 17.5 22H14.5C14.1022 22 13.7206 22.158 13.4393 22.4393C13.158 22.7206 13 23.1022 13 23.5V28H4V21C4 20.7348 4.10536 20.4804 4.29289 20.2929C4.48043 20.1054 4.73478 20 5 20H9C9.26522 20 9.51957 19.8946 9.70711 19.7071C9.89464 19.5196 10 19.2652 10 19V16C10 14.4087 10.6321 12.8826 11.7574 11.7574C12.8826 10.6321 14.4087 10 16 10C17.5913 10 19.1174 10.6321 20.2426 11.7574C21.3679 12.8826 22 14.4087 22 16V19C22 19.2652 22.1054 19.5196 22.2929 19.7071C22.4804 19.8946 22.7348 20 23 20H27C27.2652 20 27.5196 20.1054 27.7071 20.2929C27.8946 20.4804 28 20.7348 28 21V28H19ZM9 22C9.26522 22 9.51957 22.1054 9.70711 22.2929C9.89464 22.4804 10 22.7348 10 23V25C10 25.2652 9.89464 25.5196 9.70711 25.7071C9.51957 25.8946 9.26522 26 9 26C8.73478 26 8.48043 25.8946 8.29289 25.7071C8.10536 25.5196 8 25.2652 8 25V23C8 22.7348 8.10536 22.4804 8.29289 22.2929C8.48043 22.1054 8.73478 22 9 22ZM24 23C24 22.7348 23.8946 22.4804 23.7071 22.2929C23.5196 22.1054 23.2652 22 23 22C22.7348 22 22.4804 22.1054 22.2929 22.2929C22.1054 22.4804 22 22.7348 22 23V25C22 25.2652 22.1054 25.5196 22.2929 25.7071C22.4804 25.8946 22.7348 26 23 26C23.2652 26 23.5196 25.8946 23.7071 25.7071C23.8946 25.5196 24 25.2652 24 25V23ZM19 14C19.2652 14 19.5196 14.1054 19.7071 14.2929C19.8946 14.4804 20 14.7348 20 15V17C20 17.2652 19.8946 17.5196 19.7071 17.7071C19.5196 17.8946 19.2652 18 19 18C18.7348 18 18.4804 17.8946 18.2929 17.7071C18.1054 17.5196 18 17.2652 18 17V15C18 14.7348 18.1054 14.4804 18.2929 14.2929C18.4804 14.1054 18.7348 14 19 14ZM13 14C13.2652 14 13.5196 14.1054 13.7071 14.2929C13.8946 14.4804 14 14.7348 14 15V17C14 17.2652 13.8946 17.5196 13.7071 17.7071C13.5196 17.8946 13.2652 18 13 18C12.7348 18 12.4804 17.8946 12.2929 17.7071C12.1054 17.5196 12 17.2652 12 17V15C12 14.7348 12.1054 14.4804 12.2929 14.2929C12.4804 14.1054 12.7348 14 13 14ZM17 28H15V24H17V28Z" fill="#F94230"/>
</g>
</svg>
