<svg width="16" height="16" viewBox="0 0 16 16" fill="none" xmlns="http://www.w3.org/2000/svg">
<path d="M14.741 4.312L9.741 1.562C9.66716 1.52138 9.58426 1.50008 9.5 1.50008C9.41573 1.50008 9.33283 1.52138 9.259 1.562L4.259 4.312C4.1806 4.35516 4.11523 4.41857 4.0697 4.49561C4.02417 4.57266 4.00015 4.66051 4.00015 4.75C4.00015 4.83949 4.02417 4.92734 4.0697 5.00438C4.11523 5.08142 4.1806 5.14484 4.259 5.188L9 7.7955V13.155L7.482 12.32L7 13.1955L9.259 14.438C9.3328 14.4787 9.41571 14.5001 9.5 14.5001C9.58428 14.5001 9.66719 14.4787 9.741 14.438L14.741 11.688C14.8194 11.6449 14.8848 11.5815 14.9304 11.5044C14.9759 11.4274 15 11.3395 15 11.25V4.75C15 4.66049 14.9759 4.57263 14.9304 4.49559C14.8848 4.41854 14.8194 4.35514 14.741 4.312ZM9.5 2.571L13.4625 4.75L9.5 6.929L5.5375 4.75L9.5 2.571ZM14 10.9545L10 13.1545V7.795L14 5.595V10.9545Z" fill="black" fill-opacity="0.75"/>
<path d="M5 8H1V7H5V8ZM6 12H2V11H6V12ZM7 10H3V9H7V10Z" fill="black" fill-opacity="0.75"/>
</svg>
