<svg width="28" height="28" viewBox="0 0 28 28" fill="none" xmlns="http://www.w3.org/2000/svg">
<path fill-rule="evenodd" clip-rule="evenodd" d="M10.1108 13.8558C13.3308 10.626 16.478 7.47321 19.5524 4.40021C19.7133 4.23104 19.8031 4.00649 19.8031 3.77301C19.8031 3.53953 19.7133 3.31498 19.5524 3.14581C19.117 2.66141 18.4282 2.70341 18.1146 3.03381C14.9282 6.22861 11.5948 9.56761 8.11441 13.0522C7.83861 13.279 7.70001 13.5478 7.70001 13.8558C7.70001 14.1652 7.83861 14.441 8.11441 14.6846L18.5906 24.913C18.7916 25.0979 19.0567 25.1971 19.3297 25.1895C19.6026 25.1819 19.8618 25.0681 20.0522 24.8724C20.5534 24.3698 20.3602 23.8742 20.1334 23.639C16.7873 20.3828 13.4474 17.1218 10.1108 13.8558Z" fill="#F94230"/>
</svg>
