<svg width="21" height="21" viewBox="0 0 21 21" fill="none" xmlns="http://www.w3.org/2000/svg">
<g id="Camera">
<path id="Rectangle 1" d="M2.625 8.62234C2.625 7.72635 3.35135 7 4.24734 7V7C4.86184 7 5.42359 6.65282 5.6984 6.10319L6.41667 4.66667C6.44615 4.6077 6.4609 4.57821 6.47541 4.55128C6.81394 3.92303 7.46158 3.52276 8.1749 3.50094C8.20548 3.5 8.23844 3.5 8.30437 3.5H12.6956C12.7616 3.5 12.7945 3.5 12.8251 3.50094C13.5384 3.52276 14.1861 3.92303 14.5246 4.55128C14.5391 4.57821 14.5538 4.6077 14.5833 4.66667L15.3016 6.10319C15.5764 6.65281 16.1382 7 16.7527 7V7C17.6487 7 18.375 7.72635 18.375 8.62234V13C18.375 14.3978 18.375 15.0967 18.1466 15.6481C17.8422 16.3831 17.2581 16.9672 16.5231 17.2716C15.9717 17.5 15.2728 17.5 13.875 17.5H7.125C5.72718 17.5 5.02826 17.5 4.47695 17.2716C3.74187 16.9672 3.15784 16.3831 2.85336 15.6481C2.625 15.0967 2.625 14.3978 2.625 13V8.62234Z" stroke="white" stroke-width="2"/>
<circle id="Ellipse 55" cx="10.5" cy="11.375" r="2.5" stroke="white" stroke-width="2"/>
</g>
</svg>
