<svg width="110" height="85" viewBox="0 0 110 85" fill="none" xmlns="http://www.w3.org/2000/svg">
<path d="M0.000976562 15.9999C0.000976562 7.16338 7.16442 -6.10352e-05 16.001 -6.10352e-05H94.001C102.838 -6.10352e-05 110.001 7.16338 110.001 15.9999V68.9999C110.001 77.8365 102.838 84.9999 94.001 84.9999H16.001C7.16442 84.9999 0.000976562 77.8365 0.000976562 68.9999V15.9999Z" fill="#D5AE6C"/>
<mask id="mask0_2373_33100" style="mask-type:alpha" maskUnits="userSpaceOnUse" x="29" y="17" width="54" height="53">
<path fill-rule="evenodd" clip-rule="evenodd" d="M29.9932 17.813H82.4549V69.9975H29.9932" fill="white"/>
</mask>
<g mask="url(#mask0_2373_33100)">
<path fill-rule="evenodd" clip-rule="evenodd" d="M55.0004 18C61.886 18 68.1212 20.8229 72.6424 25.3893C77.1637 29.9558 79.9707 36.2658 80 43.2409V43.3511V43.4608C79.9739 49.6634 77.7448 55.3375 74.0691 59.7298C74.0191 59.7042 73.9542 59.658 73.8672 59.5711C73.7243 59.4281 73.526 59.1817 73.2532 58.762C73.0252 58.4232 71.9284 56.7067 70.8885 54.1873C69.849 51.668 68.8663 48.3468 68.8663 44.7989C68.8663 44.1027 69.3567 43.2108 70.064 42.2539C70.7713 41.2971 71.6954 40.2759 72.5627 39.3214L72.593 39.2878L72.5932 39.2876C73.2315 38.5808 73.8516 37.8944 74.3694 37.2532C74.895 36.6018 75.3151 35.9965 75.5414 35.4639C75.8299 34.7768 75.8731 34.1935 75.765 33.741C75.6563 33.2884 75.3962 32.9675 75.0766 32.8047C74.7881 32.6603 74.4271 32.6406 74.0624 32.7956C73.6977 32.9501 73.329 33.2792 73.0247 33.8324C72.5257 34.727 72.1962 35.2578 71.8094 35.7149C71.4226 36.1716 70.9786 36.5547 70.2506 37.1536C69.5343 37.7515 68.6067 38.3517 67.8584 38.6073C67.1101 38.8633 66.5407 38.7746 66.5407 37.9956C66.5407 37.5746 66.8576 36.8875 67.253 36.1382C67.3926 35.8737 67.5421 35.6014 67.6908 35.3304L67.691 35.3301L67.6911 35.3299L67.6912 35.3298L67.6912 35.3297C67.9634 34.8338 68.2332 34.3423 68.4363 33.9106C68.7559 33.2344 68.7432 32.652 68.4858 32.2383C68.228 31.8246 67.7254 31.58 67.0655 31.58C65.7677 31.58 64.6876 32.4257 63.9321 33.4182C63.1771 34.4107 62.7461 35.5494 62.7461 36.135C62.7461 36.6983 62.8744 37.0289 63.0076 37.3723L63.0238 37.4141C63.1631 37.7725 63.3019 38.1552 63.3019 38.8372C63.3019 39.5243 62.5902 40.3134 61.543 40.9305C60.4959 41.5477 59.1133 41.9934 57.7723 41.9934C56.4226 41.9934 55.3692 41.8471 54.5826 41.4928C53.7955 41.1381 53.2758 40.5753 52.9927 39.741L52.9039 39.4695L52.8146 39.1975L52.7652 39.0501L52.7652 39.0499L52.7652 39.0499C52.467 38.1604 52.2071 37.3849 51.9293 36.6617C51.6368 35.8982 51.3239 35.1929 50.9263 34.4719C50.7154 34.0902 50.4472 33.7675 50.1614 33.4818C49.8917 33.2122 49.6065 32.976 49.3392 32.7547L49.2914 32.7151C48.9231 32.4225 48.6436 32.1414 48.4462 31.8836C48.2487 31.6257 48.1338 31.3903 48.0937 31.1896C48.0572 30.9903 48.0288 30.7032 48.1667 30.2493C48.3046 29.7958 48.6089 29.175 49.2377 28.3096C49.8661 27.4488 50.224 26.6931 50.3466 26.0691C50.4688 25.4446 50.3557 24.9518 50.0419 24.6163C49.9279 24.4974 49.7737 24.3996 49.5862 24.3319C49.3982 24.2638 49.1769 24.2254 48.9276 24.2254C48.4863 24.2254 47.9598 24.3452 47.3855 24.6286C46.8117 24.9121 46.19 25.3601 45.559 26.0165C44.5776 27.0451 44.3653 28.0481 44.3987 28.9011C44.4172 29.3801 44.5132 29.8117 44.5938 30.1741L44.5938 30.1741C44.6567 30.4568 44.7102 30.6972 44.7102 30.8852C44.7102 31.314 44.62 31.65 44.3829 32.0244C44.1458 32.3983 43.7613 32.8111 43.1726 33.394C42.5798 33.9796 42.1809 34.5236 41.9135 35.4255C41.6458 36.3279 41.5092 37.5878 41.4411 39.6057C41.415 40.6457 41.3127 41.4649 41.1765 42.157C41.0408 42.8492 40.8713 43.4137 40.7109 43.9445C40.572 44.4099 40.4386 44.8611 40.3381 45.3539C40.238 45.8467 40.1708 46.3811 40.1636 47.0133C40.1528 47.7132 40.2042 48.2892 40.2917 48.82C40.3791 49.3507 40.5026 49.8367 40.636 50.3573C40.7659 50.8387 40.9002 51.3553 41.0242 51.982C41.1481 52.6083 41.2617 53.3453 41.3505 54.2678C41.5038 55.8148 41.5448 57.2315 41.4691 58.5974C41.3933 59.9629 41.2 61.2772 40.8844 62.6194L40.8686 62.7081L40.8533 62.7963L40.8425 62.8407C40.7841 63.0807 40.7198 63.3447 40.6455 63.563C40.5883 63.7312 40.5247 63.8706 40.4535 63.9534C39.3392 63.1438 38.2893 62.2491 37.3224 61.2695C32.7984 56.6829 30 50.3477 30 43.3516C30 36.3517 32.7984 30.0138 37.3224 25.4259C41.8468 20.838 48.0968 18 55.0004 18ZM62.8089 64.24C62.8089 64.6176 62.7926 64.9518 62.7615 65.2316C62.7304 65.5113 62.684 65.7362 62.6245 65.8953C62.4816 66.2492 62.1435 66.5943 61.6666 66.907C61.4818 67.0277 61.2708 67.142 61.0477 67.2521C59.1143 67.7381 57.0939 68 55.0122 68C54.8615 68 54.7123 67.9949 54.563 67.9897C54.4943 67.9874 54.4257 67.985 54.3568 67.9831C54.0949 67.9072 53.8501 67.8172 53.632 67.7093C53.1492 67.4716 52.7791 67.158 52.5483 66.7749C52.0236 65.9045 51.7554 64.4773 51.6157 62.6948C51.4759 60.9124 51.4646 58.7748 51.4556 56.4822L51.4511 55.8276L51.4466 55.1725C51.4299 52.8598 51.4146 50.7062 51.6093 48.9521C51.8045 47.1976 52.2093 45.843 53.0329 45.1276C53.352 44.8519 53.7384 44.6686 54.199 44.579C54.6597 44.4894 55.1944 44.4931 55.8097 44.5918C58.1492 44.9607 59.419 45.881 60.1493 47.0334C60.8774 48.1818 61.0697 49.5611 61.2504 50.8562L61.2523 50.8703L61.2722 51.0147L61.292 51.1587L61.4002 51.8906L61.5079 52.6225L61.5201 52.703L61.5201 52.7033C61.7308 54.1007 62.0486 56.2083 62.3162 58.3437C62.5889 60.5206 62.8089 62.7268 62.8089 64.24ZM70.6843 61.4898C70.8028 60.8946 70.1456 58.9134 69.2589 57.1762C68.3723 55.439 67.2557 53.946 66.456 54.3263C65.8421 54.6258 65.6541 56.4955 65.7785 58.565C65.9025 60.6341 66.3388 62.9029 66.9731 64C67.0889 64.1934 67.3107 64.2464 67.5694 64.2218C67.594 64.2196 67.6193 64.2151 67.6448 64.2105L67.6449 64.2105C67.6528 64.2091 67.6607 64.2077 67.6687 64.2064C67.6727 64.2057 67.6767 64.205 67.6808 64.2044C68.6369 63.6366 69.5515 63.0067 70.421 62.3196C70.4281 62.3051 70.4355 62.2914 70.443 62.2777C70.4542 62.2571 70.4654 62.2365 70.4751 62.2135C70.5617 62.0124 70.6315 61.7769 70.6843 61.4898ZM46.6563 57.1366C46.9511 58.8212 47.1396 60.978 47.2027 62.8386C47.2532 64.3289 47.1873 65.3145 47.0408 65.9559C46.9326 66.4295 46.7803 66.7147 46.5991 66.877C46.119 66.7129 45.6448 66.5355 45.1782 66.3431C45.0489 66.1026 44.9317 65.8078 44.8289 65.4562C44.6842 64.9625 44.5665 64.3627 44.4786 63.6679C44.2478 61.7999 44.2325 59.4662 44.4069 57.591C44.5809 55.7162 44.9447 54.3 45.4717 54.2671C45.9603 54.2392 46.3615 55.452 46.6563 57.1366Z" fill="#FEFEFE"/>
</g>
</svg>
