<svg width="110" height="85" viewBox="0 0 110 85" fill="none" xmlns="http://www.w3.org/2000/svg">
<rect width="110" height="85" rx="16" fill="#A3DB5A"/>
<path fill-rule="evenodd" clip-rule="evenodd" d="M67.5 32.5C67.5 24.2157 61.9036 17.5 55 17.5C48.0964 17.5 42.5 24.2157 42.5 32.5C42.5 35.2322 43.1087 37.7937 44.1723 40H43.75C36.3413 40 30.3012 45.8594 30.0109 53.197L30 53.75V60C30 63.9942 33.1223 67.2592 37.0593 67.4873L37.5 67.5H72.5C76.4942 67.5 79.7592 64.3777 79.9873 60.4407L80 60V53.75C80 46.3413 74.1406 40.3011 66.803 40.0109L66.25 40H65.8277C66.8913 37.7937 67.5 35.2322 67.5 32.5ZM43.75 45H48.0879C50.0677 46.5796 52.4443 47.5 55 47.5C57.5557 47.5 59.9323 46.5796 61.9121 45H66.25C70.9214 45 74.7378 48.6607 74.9871 53.2699L75 53.75V60C75 61.2821 74.0349 62.3388 72.7916 62.4832L72.5 62.5H37.5C36.2179 62.5 35.1612 61.5349 35.0168 60.2916L35 60V53.75C35 49.0786 38.6607 45.2622 43.2699 45.0129L43.75 45ZM47.5 32.5C47.5 26.7961 51.0801 22.5 55 22.5C58.92 22.5 62.5 26.7961 62.5 32.5C62.5 38.2039 58.92 42.5 55 42.5C51.0801 42.5 47.5 38.2039 47.5 32.5ZM62.5 52.5C61.1193 52.5 60 53.6193 60 55C60 56.3807 61.1193 57.5 62.5 57.5H67.5C68.8807 57.5 70 56.3807 70 55C70 53.6193 68.8807 52.5 67.5 52.5H62.5Z" fill="white"/>
</svg>
