<svg width="110" height="85" viewBox="0 0 110 85" fill="none" xmlns="http://www.w3.org/2000/svg">
<rect width="110" height="85" rx="16" fill="#A3DB5A"/>
<path fill-rule="evenodd" clip-rule="evenodd" d="M87.5 37.4991V26.0719C87.5 22.7245 84.695 19.9995 81.25 19.9995H28.75C25.305 19.9995 22.5 22.7245 22.5 26.0719V58.9262C22.5 62.2736 25.305 64.9986 28.75 64.9986H62.5C63.88 64.9986 65 63.8811 65 62.4986C65 61.1162 63.88 59.9987 62.5 59.9987H28.75C28.0725 59.9987 27.5 59.5087 27.5 58.9262V26.0719C27.5 25.4894 28.0725 24.9994 28.75 24.9994H81.25C81.9275 24.9994 82.5 25.4894 82.5 26.0719V37.4991C82.5 37.9515 82.5 39.5365 82.5 39.999V56.4262L78.495 50.9488C76.4425 48.0139 72.275 46.1239 67.9725 48.9189C67.8675 48.9864 67.7675 49.0639 67.675 49.1464C65.895 50.7288 63.405 54.1488 66.7275 59.2837L72.9 68.8535C73.3775 69.596 74.18 69.9985 75.0025 69.9985C75.4675 69.9985 75.935 69.8685 76.355 69.601C77.515 68.851 77.85 67.3036 77.1 66.1436L70.9275 56.5712C69.63 54.5638 70.0825 53.7388 70.8525 53.0163C72.755 51.8838 73.96 53.1888 74.4275 53.8563L85.4825 68.9735C86.295 70.091 87.8575 70.331 88.975 69.5185C90.09 68.701 90.3325 67.1361 89.5175 66.0236L87.3775 63.0986C87.43 62.9011 87.5 62.7111 87.5 62.4986V45.6964C89.9975 48.3814 92.5 51.8988 92.5 54.9988V57.4995C92.5 60.8696 92.5 67.4986 92.5 67.4986C92.5 68.881 93.62 69.9985 95 69.9985C96.38 69.9985 97.5 68.881 97.5 67.4986V54.9988C97.5 47.6214 89.7775 40.6715 87.23 38.5815C87.3925 38.2515 87.5 37.8915 87.5 37.4991Z" fill="white"/>
<rect x="42.5" y="37.5005" width="25" height="5" rx="2.5" fill="white"/>
<rect x="42.5" y="30.002" width="25" height="5" rx="2.5" fill="white"/>
<rect x="52.5049" y="37.5005" width="4.99999" height="17.5" rx="2.5" fill="white"/>
</svg>
