<svg width="14" height="14" viewBox="0 0 14 14" fill="none" xmlns="http://www.w3.org/2000/svg">
<path d="M1.91092e-09 3.0625C1.91092e-09 2.7144 0.138281 2.38056 0.384422 2.13442C0.630564 1.88828 0.964403 1.75 1.3125 1.75H9.1875C9.5356 1.75 9.86944 1.88828 10.1156 2.13442C10.3617 2.38056 10.5 2.7144 10.5 3.0625V4.375H11.3925C11.5891 4.37518 11.7832 4.41954 11.9604 4.5048C12.1376 4.59007 12.2934 4.71407 12.4162 4.86763L13.7121 6.48637C13.8986 6.71929 14.0001 7.00877 14 7.30713V9.1875C14 9.5356 13.8617 9.86944 13.6156 10.1156C13.3694 10.3617 13.0356 10.5 12.6875 10.5H12.25C12.25 10.9641 12.0656 11.4092 11.7374 11.7374C11.4092 12.0656 10.9641 12.25 10.5 12.25C10.0359 12.25 9.59075 12.0656 9.26256 11.7374C8.93437 11.4092 8.75 10.9641 8.75 10.5H4.375C4.3755 10.7333 4.32937 10.9643 4.23931 11.1794C4.14925 11.3946 4.01708 11.5896 3.85057 11.753C3.68406 11.9163 3.48657 12.0448 3.26972 12.1307C3.05286 12.2166 2.82102 12.2583 2.58781 12.2534C2.3546 12.2484 2.12473 12.1969 1.91173 12.1018C1.69872 12.0067 1.50687 11.87 1.34745 11.6998C1.18804 11.5295 1.06428 11.329 0.983442 11.1102C0.902608 10.8914 0.866333 10.6587 0.87675 10.4256C0.620417 10.3354 0.398408 10.1678 0.241364 9.94607C0.0843199 9.7243 -1.4658e-05 9.45925 1.91092e-09 9.1875L1.91092e-09 3.0625ZM1.13225 9.5865C1.29045 9.32749 1.51332 9.11411 1.77896 8.96732C2.0446 8.82053 2.34386 8.74538 2.64734 8.74926C2.95081 8.75315 3.24805 8.83593 3.50985 8.98947C3.77164 9.14301 3.98898 9.36203 4.1405 9.625H8.9845C9.13842 9.35924 9.35924 9.13842 9.625 8.9845V3.0625C9.625 2.94647 9.57891 2.83519 9.49686 2.75314C9.41481 2.67109 9.30353 2.625 9.1875 2.625H1.3125C1.19647 2.625 1.08519 2.67109 1.00314 2.75314C0.921094 2.83519 0.875 2.94647 0.875 3.0625V9.1875C0.874931 9.27171 0.899167 9.35415 0.944799 9.42493C0.990431 9.4957 1.05552 9.55181 1.13225 9.5865ZM10.5 8.75C10.8072 8.75001 11.1089 8.83087 11.375 8.98447C11.641 9.13806 11.8619 9.35897 12.0155 9.625H12.6875C12.8035 9.625 12.9148 9.57891 12.9969 9.49686C13.0789 9.41481 13.125 9.30353 13.125 9.1875V7.30625C13.1248 7.20696 13.0909 7.11069 13.0288 7.03325L11.7337 5.4145C11.6928 5.36326 11.6409 5.32187 11.5819 5.2934C11.5228 5.26493 11.4581 5.25009 11.3925 5.25H10.5V8.75ZM2.625 9.625C2.39294 9.625 2.17038 9.71719 2.00628 9.88128C1.84219 10.0454 1.75 10.2679 1.75 10.5C1.75 10.7321 1.84219 10.9546 2.00628 11.1187C2.17038 11.2828 2.39294 11.375 2.625 11.375C2.85706 11.375 3.07962 11.2828 3.24372 11.1187C3.40781 10.9546 3.5 10.7321 3.5 10.5C3.5 10.2679 3.40781 10.0454 3.24372 9.88128C3.07962 9.71719 2.85706 9.625 2.625 9.625ZM10.5 9.625C10.2679 9.625 10.0454 9.71719 9.88128 9.88128C9.71719 10.0454 9.625 10.2679 9.625 10.5C9.625 10.7321 9.71719 10.9546 9.88128 11.1187C10.0454 11.2828 10.2679 11.375 10.5 11.375C10.7321 11.375 10.9546 11.2828 11.1187 11.1187C11.2828 10.9546 11.375 10.7321 11.375 10.5C11.375 10.2679 11.2828 10.0454 11.1187 9.88128C10.9546 9.71719 10.7321 9.625 10.5 9.625Z" fill="black" fill-opacity="0.75"/>
</svg>
