<svg width="23" height="21" viewBox="0 0 23 21" fill="none" xmlns="http://www.w3.org/2000/svg">
<g id="Group">
<path id="Vector" d="M7 20.6667C8.10457 20.6667 9 19.7713 9 18.6667C9 17.5621 8.10457 16.6667 7 16.6667C5.89543 16.6667 5 17.5621 5 18.6667C5 19.7713 5.89543 20.6667 7 20.6667Z" fill="#F94230"/>
<path id="Vector_2" d="M19 20.6667C20.1046 20.6667 21 19.7713 21 18.6667C21 17.5621 20.1046 16.6667 19 16.6667C17.8954 16.6667 17 17.5621 17 18.6667C17 19.7713 17.8954 20.6667 19 20.6667Z" fill="#F94230"/>
<path id="Vector_3" d="M1 0.666687H3.66667L4.46667 4.66669M4.46667 4.66669L6.33333 14H19.6667L22.3333 4.66669H4.46667Z" stroke="#F94230" stroke-width="1.33333" stroke-linecap="round" stroke-linejoin="round"/>
</g>
</svg>
